<?xml version="1.0" encoding="utf-8"?>
<!-- Generator: Adobe Illustrator 25.3.1, SVG Export Plug-In . SVG Version: 6.00 Build 0)  -->
<svg version="1.1" id="Layer_1" xmlns="http://www.w3.org/2000/svg" xmlns:xlink="http://www.w3.org/1999/xlink" x="0px" y="0px"
	 viewBox="0 0 690.2 164.7" style="enable-background:new 0 0 690.2 164.7;" xml:space="preserve">
<style type="text/css">
	.st0{fill:url(#path3284_1_);}
	.st1{fill:url(#path3297_1_);}
</style>
<g id="Layer_2_1_">
	<g id="Capa_1">
		
			<linearGradient id="path3284_1_" gradientUnits="userSpaceOnUse" x1="-159.9611" y1="-2081.2749" x2="-46.8411" y2="-2081.2749" gradientTransform="matrix(1.13 0 0 1.2 180.34 2584.24)">
			<stop  offset="0" style="stop-color:#952D90"/>
			<stop  offset="0.26" style="stop-color:#C91A72"/>
			<stop  offset="0.52" style="stop-color:#EC1D2E"/>
			<stop  offset="0.77" style="stop-color:#F16222"/>
			<stop  offset="1" style="stop-color:#F9A21B"/>
		</linearGradient>
		<path id="path3284" class="st0" d="M63.9,32.7L43.5,11H49l14.9,15.9L78.8,11h5.5L63.9,32.7z M0,66.2v5.9l63.9,69.6l63.7-69.4v-5.9
			l-63.7,69.4L0,66.2z M0,22.6v5.9L63.9,98l63.7-69.4v-5.8L63.9,92.2L0,22.6z M7.9,11H2.4l61.5,65.4L125.4,11h-5.5l-56,59.5L7.9,11z
			 M0,44.4v5.9l63.9,69.6l63.7-69.4v-5.9L63.9,114L0,44.4z M63.9,48.7L28.5,11H23l40.9,43.6L104.8,11h-5.5L63.9,48.7z M0,88.1v4.7
			l63.9,69.6L127.6,93v-4.7l-63.7,69.4L0,88.1z"/>
		
			<linearGradient id="path3297_1_" gradientUnits="userSpaceOnUse" x1="26.3982" y1="-2094.25" x2="450.1282" y2="-2094.25" gradientTransform="matrix(1.13 0 0 1.2 180.34 2584.24)">
			<stop  offset="0" style="stop-color:#952D90"/>
			<stop  offset="0.26" style="stop-color:#C91A72"/>
			<stop  offset="0.52" style="stop-color:#EC1D2E"/>
			<stop  offset="0.77" style="stop-color:#F16222"/>
			<stop  offset="1" style="stop-color:#F9A21B"/>
		</linearGradient>
		<path id="path3297" class="st1" d="M277,139.9h-29.9L210.2,31.4h29.1L258.1,99c2.3,8.3,3.8,17.5,3.8,17.5h0.4
			c0,0,1.5-9.2,3.8-17.5l18.7-67.6h29L277,139.9z M371.3,142.3c-28.2,0-43-12.1-43-40.2V31.4H354v71.2c0,11.7,5.9,17.1,17.2,17.1
			c6.6,0,12.1-1.2,15-2.4V31.4H412v103C403.1,139,387.2,142.2,371.3,142.3L371.3,142.3z M502.3,139.9V65.8
			c0-16.1-9.3-26.6-27.8-26.6c-10.2,0-19.1,2-24.8,4.4v96.2h-11.2v-103c9.3-4.4,22-7.5,36-7.5c25.4,0,39,13.5,39,35.8v74.7
			L502.3,139.9z M621.7,80.7L550.1,92c1.5,26.6,15.5,40.1,37.1,40.1c10.2,0,21.2-2.8,27.7-6.8l3.8,9.3c-6.8,4.2-18.9,7.4-31.8,7.4
			c-29.2,0-47.5-19.5-47.5-56.3c0-33.4,16.5-56.2,43.2-56.2c23.7,0,39.4,16.3,39.4,44.9C621.9,76.3,621.9,78.3,621.7,80.7
			L621.7,80.7z M582.5,38.8c-20.1,0-32.4,17.5-32.9,44.1l61.5-9.4C610.9,49.9,599.5,38.8,582.5,38.8z M680,140.8
			c-15.1,0-25.9-8.9-25.9-27.2V40.5h-15.9v-9.1h15.9v-27L664.8,0v31.4H688v9.1h-23.2v72.9c0,12.1,7.8,17.1,16.9,17.1
			c2.1,0,4.2-0.3,6.2-1v10.3C686.2,140.5,683.6,140.9,680,140.8L680,140.8z"/>
	</g>
</g>
</svg>
